<svg id="chart" xmlns="http://www.w3.org/2000/svg" width="21.824" height="21.824" viewBox="0 0 21.824 21.824">
  <path id="Path" d="M0,5.5A5.474,5.474,0,0,1,4.474,9.977h5.5A10.942,10.942,0,0,0,0,0Z" transform="translate(11.846 0.001)" fill="#fff"/>
  <path id="Path-2" data-name="Path" d="M12.863,0A5.471,5.471,0,0,1,7.478,4.556,5.433,5.433,0,0,1,4.085,3.368L0,7.045a10.881,10.881,0,0,0,7.478,2.979A10.944,10.944,0,0,0,18.366,0Z" transform="translate(3.457 11.801)" fill="#fff"/>
  <path id="Path-3" data-name="Path" d="M6.323,13.814a5.452,5.452,0,0,1,3.7-8.311V0A10.907,10.907,0,0,0,2.238,17.49Z" transform="translate(0 0)" fill="#fff"/>
</svg>
