<svg xmlns="http://www.w3.org/2000/svg" width="21" height="21" viewBox="0 0 21 21">
  <g id="Group_8790" data-name="Group 8790" transform="translate(22 21)">
    <g id="Ellipse_8" data-name="Ellipse 8" transform="translate(-22 -21)" fill="none" stroke="#5a5a5a" stroke-width="1.3">
      <circle cx="10.5" cy="10.5" r="10.5" stroke="none"/>
      <circle cx="10.5" cy="10.5" r="9.85" fill="none"/>
    </g>
    <path id="Path_127" data-name="Path 127" d="M-101.914,147.7a3.733,3.733,0,0,1-3.293.16,4.194,4.194,0,0,0-2.557.451l-.656-.719a22.147,22.147,0,0,0,1.512-2.859.875.875,0,0,0,.017-.245h-1.461v-1.016h.982c-.046-.063-.1-.131-.148-.2a2.785,2.785,0,0,1-.394-2.968,2.6,2.6,0,0,1,2.357-1.467,2.637,2.637,0,0,1,2.637,2.631h-1.016a1.623,1.623,0,0,0-1.621-1.621,1.615,1.615,0,0,0-1.45.9,1.771,1.771,0,0,0,.285,1.9,5.418,5.418,0,0,1,.548.822h1.861v1.016h-1.564a1.819,1.819,0,0,1-.051.491,11.649,11.649,0,0,1-.93,1.935,3.4,3.4,0,0,1,2.037.011,2.7,2.7,0,0,0,2.323-.057Z" transform="translate(93.904 -154.319)" fill="#5a5a5a"/>
  </g>
</svg>
