<svg xmlns="http://www.w3.org/2000/svg" width="20.25" height="12.937" viewBox="0 0 20.25 12.937">
  <path id="Actions_ico" data-name="Actions ico" d="M18.879,8.406a1.569,1.569,0,0,1,0,1.687,11.253,11.253,0,0,1-4.113,4.078A11.19,11.19,0,0,1,9,15.719a11.19,11.19,0,0,1-5.766-1.547A11.253,11.253,0,0,1-.879,10.094a1.569,1.569,0,0,1,0-1.687A11.46,11.46,0,0,1,9,2.781a11.46,11.46,0,0,1,9.879,5.625ZM9,14.031a4.579,4.579,0,0,0,2.391-.65,4.951,4.951,0,0,0,1.74-1.74,4.719,4.719,0,0,0,0-4.781,4.951,4.951,0,0,0-1.74-1.74,4.719,4.719,0,0,0-4.781,0,4.951,4.951,0,0,0-1.74,1.74,4.719,4.719,0,0,0,0,4.781,4.951,4.951,0,0,0,1.74,1.74A4.579,4.579,0,0,0,9,14.031ZM12.656,9.25A3.661,3.661,0,0,1,9,12.906,3.661,3.661,0,0,1,5.344,9.25a3.671,3.671,0,0,1,.422-1.723A1.5,1.5,0,0,0,7.277,9.039,1.5,1.5,0,0,0,8.789,7.527,1.5,1.5,0,0,0,7.277,6.016,3.671,3.671,0,0,1,9,5.594,3.661,3.661,0,0,1,12.656,9.25Z" transform="translate(1.125 -2.781)" fill="#0093ee"/>
</svg>
