<svg xmlns="http://www.w3.org/2000/svg" width="84" height="76.75" viewBox="0 0 84 76.75">
  <text id="Fast_and_free_sign_up_" data-name="Fast  and free 
sign up " transform="translate(42 57.75)" fill="#232750" font-size="12" font-family="Montserrat-Light, Montserrat" font-weight="300" letter-spacing="-0.011em" opacity="0.75"><tspan x="-41.13" y="0" xml:space="preserve">Fast  and free </tspan><tspan x="-23.25" y="16">sign up </tspan></text>
  <g id="Website" transform="translate(22)" opacity="0.8">
    <g id="VertoFX---V4-Login" transform="translate(0)">
      <g id="businessman">
        <path id="Path" d="M1.292,26.316a.756.756,0,0,0-1.07,0,.757.757,0,0,0,.535,1.292.757.757,0,0,0,.535-1.292Z" transform="translate(0 -13.455)" fill="#8b8888"/>
        <path id="Path-2" data-name="Path" d="M29.819,0H14.506a.757.757,0,0,0,0,1.514H29.819a.758.758,0,0,1,.757.757V36.479a.758.758,0,0,1-.757.757H2.271a.758.758,0,0,1-.757-.757V16.221a.757.757,0,0,0-1.514,0V36.479A2.273,2.273,0,0,0,2.271,38.75H29.819a2.273,2.273,0,0,0,2.271-2.271V2.271A2.273,2.273,0,0,0,29.819,0Z" transform="translate(0)" fill="#8b8888"/>
        <path id="Shape" d="M22.546,6.25a10.187,10.187,0,0,0-1.538.117.757.757,0,1,0,.229,1.5,8.657,8.657,0,0,1,1.309-.1,8.547,8.547,0,0,1,6.541,14.055,7.583,7.583,0,0,0-3.951-3.306,3.7,3.7,0,0,0,1.118-2.651v-.738a3.708,3.708,0,1,0-7.417,0v.738a3.7,3.7,0,0,0,1.118,2.651A7.584,7.584,0,0,0,16,21.832a8.524,8.524,0,0,1-1.885-4.091.757.757,0,0,0-1.493.25A10.067,10.067,0,1,0,22.546,6.25Zm-2.195,8.874a2.195,2.195,0,1,1,4.39,0v.738a2.195,2.195,0,1,1-4.39,0Zm2.195,9.744A8.542,8.542,0,0,1,17.12,22.94a6.054,6.054,0,0,1,10.846-.013A8.513,8.513,0,0,1,22.546,24.868Z" transform="translate(-6.501 -3.223)" fill="#8b8888"/>
        <path id="Path-3" data-name="Path" d="M35.31,62.188H24.563a.757.757,0,0,0,0,1.514H35.31a.757.757,0,1,0,0-1.514Z" transform="translate(-12.275 -32.066)" fill="#8b8888"/>
        <path id="Path-4" data-name="Path" d="M18.423,53.659a.756.756,0,1,0,.222.535A.762.762,0,0,0,18.423,53.659Z" transform="translate(-8.833 -27.554)" fill="#8b8888"/>
        <path id="Path-5" data-name="Path" d="M18.423,62.409a.756.756,0,1,0,.222.535A.761.761,0,0,0,18.423,62.409Z" transform="translate(-8.833 -32.065)" fill="#8b8888"/>
        <path id="Path-6" data-name="Path" d="M35.31,53.438H24.563a.757.757,0,0,0,0,1.514H35.31a.757.757,0,1,0,0-1.514Z" transform="translate(-12.275 -27.554)" fill="#8b8888"/>
        <path id="Path-7" data-name="Path" d="M12.344,8.769a.757.757,0,0,0-1.07,0L8.809,11.233l-.842-.842a.757.757,0,0,0-1.07,1.07l1.377,1.377a.757.757,0,0,0,1.07,0l3-3A.757.757,0,0,0,12.344,8.769Z" transform="translate(-3.441 -4.407)" fill="#8b8888"/>
        <path id="Shape-2" data-name="Shape" d="M6.206,0a6.206,6.206,0,1,0,6.206,6.206A6.213,6.213,0,0,0,6.206,0Zm0,10.9A4.692,4.692,0,1,1,10.9,6.206,4.7,4.7,0,0,1,6.206,10.9Z" transform="translate(0)" fill="#8b8888"/>
      </g>
    </g>
  </g>
</svg>
