<svg xmlns="http://www.w3.org/2000/svg" width="15.347" height="16.941" viewBox="0 0 15.347 16.941">
  <g id="Icon_feather-share-2" data-name="Icon feather-share-2" transform="translate(0.5 0.5)" opacity="0.75">
    <path id="Path_38" data-name="Path 38" d="M27.282,5.391A2.391,2.391,0,1,1,24.891,3,2.391,2.391,0,0,1,27.282,5.391Z" transform="translate(-12.935 -3)" fill="none" stroke="#232750" stroke-linecap="round" stroke-linejoin="round" stroke-width="1"/>
    <path id="Path_39" data-name="Path 39" d="M9.282,15.891A2.391,2.391,0,1,1,6.891,13.5,2.391,2.391,0,0,1,9.282,15.891Z" transform="translate(-4.5 -7.921)" fill="none" stroke="#232750" stroke-linecap="round" stroke-linejoin="round" stroke-width="1"/>
    <path id="Path_40" data-name="Path 40" d="M27.282,26.391A2.391,2.391,0,1,1,24.891,24,2.391,2.391,0,0,1,27.282,26.391Z" transform="translate(-12.935 -12.841)" fill="none" stroke="#232750" stroke-linecap="round" stroke-linejoin="round" stroke-width="1"/>
    <path id="Path_41" data-name="Path 41" d="M12.885,20.265l5.444,3.172" transform="translate(-8.429 -11.091)" fill="none" stroke="#232750" stroke-linecap="round" stroke-linejoin="round" stroke-width="1"/>
    <path id="Path_42" data-name="Path 42" d="M18.321,9.765l-5.436,3.172" transform="translate(-8.429 -6.17)" fill="none" stroke="#232750" stroke-linecap="round" stroke-linejoin="round" stroke-width="1"/>
  </g>
</svg>
