<svg xmlns="http://www.w3.org/2000/svg" xmlns:xlink="http://www.w3.org/1999/xlink" width="42" height="42" viewBox="0 0 42 42">
  <defs>
    <linearGradient id="linear-gradient" x1="0.5" x2="0.5" y2="1" gradientUnits="objectBoundingBox">
      <stop offset="0" stop-color="#00c6ff"/>
      <stop offset="1" stop-color="#0072ff"/>
    </linearGradient>
  </defs>
  <g id="Ellipse_10" data-name="Ellipse 10" transform="translate(3 2)" fill="none" stroke="rgba(0,147,238,0.3)" stroke-width="2">
    <circle cx="18.5" cy="18.5" r="18.5" stroke="none"/>
    <circle cx="18.5" cy="18.5" r="17.5" fill="none"/>
  </g>
  <path id="Icon_map-food" data-name="Icon map-food" d="M19.167,6.914,17.651,18.146H12.532L11.022,6.858h6.25l1.235-4.034.7.2L18.022,6.906l1.144.008Zm-8.868,6.5s.191-1.457-2.463-1.457H3.608c-2.651,0-2.463,1.457-2.463,1.457H10.3ZM1.145,16.69s-.188,1.457,2.463,1.457H7.836c2.654,0,2.463-1.457,2.463-1.457ZM9.9,15.962a.92.92,0,0,0,0-1.821h-8.4a.92.92,0,0,0,0,1.821Z" transform="translate(11.395 10.113)" fill="#8b8484"/>
  <circle id="Oval_8" data-name="Oval 8" cx="21" cy="21" r="21" fill="url(#linear-gradient)"/>
  <path id="Shape" d="M1.436,2.873A1.436,1.436,0,1,0,0,1.436,1.441,1.441,0,0,0,1.436,2.873Z" transform="translate(22.137 21.865)" fill="#fff"/>
  <path id="Shape-2" data-name="Shape" d="M17.238,15.8H3.591A3.553,3.553,0,0,1,0,12.21V2.873A2.876,2.876,0,0,1,2.873,0H15.8V2.873H14.365V1.436H2.873a1.436,1.436,0,1,0,0,2.873H17.238V15.8ZM1.436,5.314v6.9a2.107,2.107,0,0,0,2.155,2.155H15.8V5.746H2.873A2.575,2.575,0,0,1,1.436,5.314Z" transform="translate(12.082 13.246)" fill="#fff"/>
</svg>
