
<svg id="Layer_x0020_1" xmlns="http://www.w3.org/2000/svg" width="364.459" height="69.891" viewBox="0 0 364.459 69.891">
  <path id="Path_50155" data-name="Path 50155" d="M12300.512,2966.169q9.41,4.394,9.41,8.206,0,2.911-3.738,4.5a17.223,17.223,0,0,1-6.791,1.27,12.984,12.984,0,0,1-5.545-1.218,8.482,8.482,0,0,1-3.988-3.282v5.611a25.11,25.11,0,0,0,11.9,2.7,20.85,20.85,0,0,0,11.527-3.124q5.42-3.44,5.42-8.893,0-4.181-4.736-7.782a66.6,66.6,0,0,0-7.85-4.34q-7.661-3.812-7.664-7.094,0-2.435,2.742-3.652a12.914,12.914,0,0,1,5.3-.953,11.058,11.058,0,0,1,8.285,3.865,8.7,8.7,0,0,1,1.061,1.323v-5.135q-4.362-3.07-11.9-3.07a19.87,19.87,0,0,0-9.6,2.223q-4.8,2.648-4.609,6.988a9.656,9.656,0,0,0,2.428,6.3Q12294.6,2963.47,12300.512,2966.169Z" transform="translate(-12206.953 -2925.264)" fill="#fefefe"/>
  <path id="_1" data-name="1" d="M16545.535,4503.725a5.113,5.113,0,0,0-.561-2.435H16539a7.125,7.125,0,0,1,.434,2.382q0,3.442-2.99,11.064-2.927,7.464-2.74,11.593l-7.291-25.04h-7.227a19.571,19.571,0,0,1,.436,3.6q0,2.54-2.115,8.84a33.128,33.128,0,0,0-2.059,9.741,18.789,18.789,0,0,0,.186,2.7l-8.035-24.881h-7.914l9.533,27.845h9.035a6.456,6.456,0,0,1-.186-1.588,18.91,18.91,0,0,1,1.93-6.723,28.85,28.85,0,0,0,2.3-7.305l4.922,15.616h8.908q-.372-2.54,3.676-10.852l4.924-10.27A13.446,13.446,0,0,0,16545.535,4503.725Z" transform="translate(-16388.547 -4470.972)" fill="#fefefe"/>
  <path id="_2" data-name="2" d="M23688.451,2950.712a4.19,4.19,0,0,0,2.8.953,4.091,4.091,0,0,0,2.742-.953,2.884,2.884,0,0,0,0-4.659,4.09,4.09,0,0,0-2.742-.953,4.282,4.282,0,0,0-2.867.953,2.951,2.951,0,0,0-1.121,2.329A2.9,2.9,0,0,0,23688.451,2950.712Zm8.352,32.715q-1.62-1.376-1.621-6.088v-21.757h-7.725v21.757q0,4.764,1.617,6.088Z" transform="translate(-23527.725 -2925.264)" fill="#fefefe"/>
  <path id="_3" data-name="3" d="M25115.961,2959.4h3.363a31.6,31.6,0,0,1,5.918.847q-.744-3.971-6.1-3.97h-3.18v-5.347q0-2.594,3.863-2.594a6.308,6.308,0,0,1,5.355,2.7v-3.971q-2.238-1.905-7.785-1.958a11.338,11.338,0,0,0-6.355,1.642,5.7,5.7,0,0,0-2.8,4.976v4.553h-5.605q1.371,3.123,5.605,3.123v17.946q0,4.712,1.621,6.088h7.727q-1.623-1.376-1.621-6.088Z" transform="translate(-24933.555 -2925.273)" fill="#fefefe"/>
  <path id="_4" data-name="4" d="M28102.082,3556.725h-7.285v-6.405a21.463,21.463,0,0,1-5.984,5.611,30.63,30.63,0,0,1-7.6,4.023l5.855.053v18.475q0,4.711,1.5,6.087h7.852q-1.623-1.376-1.617-6.087v-18.475h1.43q.064,0,.375-.027t.563-.026a15.761,15.761,0,0,1,4.859.741Z" transform="translate(-27892.072 -3526.408)" fill="#fefefe"/>
  <path id="_5" data-name="5" d="M30969.047,3061.5q-2.93-1.429-6.168-5.77l-10.223-14.875q10.975-11.806,10.973-17.152h-7.109q0,5.717-6.477,13.393l-5.234-7.623c-.2-.282-.508-.7-.906-1.244s-.668-.944-.836-1.191a14.306,14.306,0,0,0-3.426-3.335h-9.352q2.057,1.324,5.363,5.771l9.344,13.446q-7.98,8.84-8.844,9.952-4.617,5.241-4.609,8.629h6.914q0-4.923,9.094-14.875l7.227,10.852a12.278,12.278,0,0,0,1.43,1.747,6.726,6.726,0,0,0,2.68,2.277Z" transform="translate(-30721.961 -3003.333)" fill="#fefefe"/>
  <path id="_6" data-name="6" d="M36734.18,4456.783a14.533,14.533,0,0,1,11.027-4.764,20.087,20.087,0,0,1,8.6,1.429v4.288a5.946,5.946,0,0,0-5.789-3.334,7.571,7.571,0,0,0-6.922,3.811,14.387,14.387,0,0,0-2.113,7.782,16.514,16.514,0,0,0,1.059,6.141,7.3,7.3,0,0,0,4.172,4.711,9.348,9.348,0,0,0,3.68.741,8.189,8.189,0,0,0,5.914-2.594v4.394a23.179,23.179,0,0,1-7.91,1.111q-6.979,0-11.277-3.812a12.44,12.44,0,0,1-4.3-9.74A14.32,14.32,0,0,1,36734.18,4456.783Z" transform="translate(-36482.926 -4422.019)" fill="#fefefe"/>
  <path id="_7" data-name="7" d="M40452.883,4456.783a14.53,14.53,0,0,1,11.031-4.764,20.09,20.09,0,0,1,8.594,1.429v4.288a5.958,5.958,0,0,0-5.8-3.334,7.568,7.568,0,0,0-6.914,3.811,14.39,14.39,0,0,0-2.117,7.782,16.514,16.514,0,0,0,1.059,6.141,7.329,7.329,0,0,0,4.176,4.711,9.315,9.315,0,0,0,3.676.741,8.191,8.191,0,0,0,5.918-2.594v4.394a23.188,23.188,0,0,1-7.914,1.111q-6.973,0-11.273-3.812a12.428,12.428,0,0,1-4.3-9.74A14.3,14.3,0,0,1,40452.883,4456.783Z" transform="translate(-40176.578 -4422.019)" fill="#fefefe"/>
  <path id="_8" data-name="8" d="M44175.84,4479.507a9.62,9.62,0,0,1-3.676-.689,6.751,6.751,0,0,1-4.422-5.876,14.076,14.076,0,0,1,5.168-3.017,21.464,21.464,0,0,0,6.355-3.547c2.164-1.765,3.238-3.618,3.238-5.559,0-2.082-1.094-3.758-3.3-5.029a13.648,13.648,0,0,0-6.789-1.642q-6.791.106-10.59,4.765a15.155,15.155,0,0,0-3.426,10.111,12.5,12.5,0,0,0,4.047,9.582,15.068,15.068,0,0,0,10.9,4.023,23.171,23.171,0,0,0,3.426-.317,12.576,12.576,0,0,0,5.668-1.906l.063-4.235A8.333,8.333,0,0,1,44175.84,4479.507Zm-5.234-11.858a37.254,37.254,0,0,0-3.426,2.223q-.059-.742-.059-2.435,0-10.481,4.793-10.8a3.6,3.6,0,0,1,2.715.714,3.323,3.323,0,0,1,.9,2.568q0,4.764-4.918,7.729Z" transform="translate(-43860.973 -4424.149)" fill="#fefefe"/>
  <path id="_9" data-name="9" d="M48073.047,4471.927a3.951,3.951,0,0,1,1.8,3.017,3.886,3.886,0,0,1-1.859,3.547,8.142,8.142,0,0,1-4.551,1.112,7.1,7.1,0,0,1-3.551-.953,6.881,6.881,0,0,1-2.684-2.329v4.34a14.7,14.7,0,0,0,8.035,1.958,13.337,13.337,0,0,0,8.168-2.541,7.789,7.789,0,0,0,3.488-6.564,7.654,7.654,0,0,0-1.8-5.029,17.9,17.9,0,0,0-4.8-3.494l-3.934-2.117a3.893,3.893,0,0,1-2.18-3.229q0-2.542,3.559-2.542c.16,0,.578.036,1.246.106a9.4,9.4,0,0,1,6.043,3.229v-4.076a10.44,10.44,0,0,0-3.863-1.641,20.017,20.017,0,0,0-4.3-.583,12.052,12.052,0,0,0-6.551,1.8q-3.176,2.011-3.176,4.976,0,5.4,6.543,8.576A45.582,45.582,0,0,1,48073.047,4471.927Z" transform="translate(-47738.418 -4424.14)" fill="#fefefe"/>
  <path id="_10" data-name="10" d="M51190.453,4471.927a3.951,3.951,0,0,1,1.8,3.017,3.885,3.885,0,0,1-1.867,3.547,8.121,8.121,0,0,1-4.547,1.112,7.1,7.1,0,0,1-3.551-.953,6.881,6.881,0,0,1-2.684-2.329v4.34a14.691,14.691,0,0,0,8.039,1.958,13.322,13.322,0,0,0,8.16-2.541,7.78,7.78,0,0,0,3.488-6.564,7.633,7.633,0,0,0-1.8-5.029,17.838,17.838,0,0,0-4.8-3.494l-3.926-2.117a3.876,3.876,0,0,1-2.18-3.229q0-2.542,3.551-2.542c.172,0,.582.036,1.246.106a9.391,9.391,0,0,1,6.047,3.229v-4.076a10.4,10.4,0,0,0-3.867-1.641,19.987,19.987,0,0,0-4.3-.583,12.021,12.021,0,0,0-6.539,1.8q-3.187,2.011-3.184,4.976,0,5.4,6.547,8.576A45.641,45.641,0,0,1,51190.453,4471.927Z" transform="translate(-50834.836 -4424.14)" fill="#fefefe"/>
  <path id="Path_50156" data-name="Path 50156" d="M5195.424,27.29l9.357-5.4V12.966L5182.33,0V7.233l13.092,7.558Z" transform="translate(-5147.425)" fill="#f58634"/>
  <path id="Path_50157" data-name="Path 50157" d="M4516.283,7651.8l-10.821-6.246v10.8l7.726,4.463,22.458-12.961-6.261-3.616-13.1,7.559Z" transform="translate(-4475.114 -7592.753)" fill="#f58634"/>
  <path id="Path_50158" data-name="Path 50158" d="M6.266,2884.539l10.817-6.246-9.354-5.4L0,2877.349l0,22.223v3.7l6.264-3.617v-15.12Z" transform="translate(0 -2853.54)" fill="#f58634"/>
  <path id="Path_50159" data-name="Path 50159" d="M481.891,271.6,459.44,284.562l22.451,12.965,22.453-12.965Z" transform="translate(-456.346 -269.771)" fill="#fe6018"/>
  <path id="Path_50160" data-name="Path 50160" d="M6112.552,3031.739,6135,3018.778v-25.927l-22.453,12.961Z" transform="translate(-6071.379 -2972.692)" fill="#fe6018"/>
  <path id="Path_50161" data-name="Path 50161" d="M929.94,4628.8l22.451,12.963,0-25.926-22.452-12.962Z" transform="translate(-923.676 -4571.867)" fill="#fe6018"/>
  <path id="Path_50162" data-name="Path 50162" d="M5182.4,2483.261v1.69l7.728,4.462,5.367-3.1h0V2475.7Z" transform="translate(-5147.493 -2459.025)" fill="#ebb287"/>
  <path id="Path_50163" data-name="Path 50163" d="M4514.725,6272.155l0-15.121-1.463-.844-7.729,4.461v6.2Z" transform="translate(-4475.184 -6214.052)" fill="#ebb287"/>
  <path id="Path_50164" data-name="Path 50164" d="M1181.487,3675.15l-9.187,5.308,13.093,7.558,1.465-.845v-8.919Z" transform="translate(-1164.404 -3650.396)" fill="#ebb287"/>
</svg>
