<svg xmlns="http://www.w3.org/2000/svg" xmlns:xlink="http://www.w3.org/1999/xlink" width="39" height="39" viewBox="0 0 39 39">
  <defs>
    <clipPath id="clip-path">
      <rect width="16.4" height="12.3" fill="none"/>
    </clipPath>
  </defs>
  <g id="Group_9445" data-name="Group 9445" transform="translate(-1678 -39)">
    <g id="Ellipse_36" data-name="Ellipse 36" transform="translate(1678 39)" fill="none" stroke="#fff" stroke-width="1.5">
      <circle cx="19.5" cy="19.5" r="19.5" stroke="none"/>
      <circle cx="19.5" cy="19.5" r="18.75" fill="none"/>
    </g>
    <g id="Group_8847" data-name="Group 8847" transform="translate(1577.775 -165)">
      <g id="Component_6_47" data-name="Component 6 – 47" transform="translate(110.225 218.7)" clip-path="url(#clip-path)">
        <path id="Path_360" data-name="Path 360" d="M14.862,0H1.537A1.538,1.538,0,0,0,0,1.537v9.225A1.538,1.538,0,0,0,1.537,12.3H14.862A1.538,1.538,0,0,0,16.4,10.762V1.537A1.538,1.538,0,0,0,14.862,0Zm-.368,1.025L8.2,5.519,1.906,1.025Zm.881,9.737a.514.514,0,0,1-.512.512H1.537a.514.514,0,0,1-.512-.512V1.656L7.9,6.566a.51.51,0,0,0,.6,0l6.877-4.91Z" fill="#f5f5f5" stroke="#f5f5f5" stroke-width="0.3"/>
      </g>
      <ellipse id="Ellipse_2" data-name="Ellipse 2" cx="4" cy="4.2" rx="4" ry="4.2" transform="translate(122 216)" fill="#0083ff"/>
    </g>
  </g>
</svg>
