<svg xmlns="http://www.w3.org/2000/svg" width="39" height="39" viewBox="0 0 39 39">
  <g id="Group_9444" data-name="Group 9444" transform="translate(-1542 -39)">
    <g id="Ellipse_34" data-name="Ellipse 34" transform="translate(1542 39)" fill="none" stroke="#fff" stroke-width="1.5">
      <circle cx="19.5" cy="19.5" r="19.5" stroke="none"/>
      <circle cx="19.5" cy="19.5" r="18.75" fill="none"/>
    </g>
    <g id="Icon_feather-bell" data-name="Icon feather-bell" transform="translate(1552 48)">
      <path id="Path_49805" data-name="Path 49805" d="M18.763,9.111A5.918,5.918,0,0,0,13.058,3,5.918,5.918,0,0,0,7.353,9.111c0,7.129-2.853,9.166-2.853,9.166H21.616s-2.853-2.037-2.853-9.166" transform="translate(-4.5 -1.386)" fill="none" stroke="rgba(255,255,255,0.75)" stroke-linecap="round" stroke-linejoin="round" stroke-width="1.5"/>
      <path id="Path_49806" data-name="Path 49806" d="M18.8,31.5a1.963,1.963,0,0,1-3.4,0" transform="translate(-8.546 -10.683)" fill="none" stroke="rgba(255,255,255,0.75)" stroke-linecap="round" stroke-linejoin="round" stroke-width="1.5"/>
      <g id="Group_8478" data-name="Group 8478" transform="translate(-320.673 -72)">
        <circle id="Ellipse_8" data-name="Ellipse 8" cx="4.5" cy="4.5" r="4.5" transform="translate(330 72)" fill="#0083ff"/>
        <text id="_1" data-name="1" transform="translate(333 79)" fill="rgba(255,255,255,0.8)" font-size="6" font-family="SegoeUI-Bold, Segoe UI" font-weight="700"><tspan x="0" y="0">1</tspan></text>
      </g>
    </g>
  </g>
</svg>
