<svg xmlns="http://www.w3.org/2000/svg" width="16.815" height="20.6" viewBox="0 0 16.815 20.6">
  <g id="Icon_awesome-file-alt" data-name="Icon awesome-file-alt" transform="translate(1.3 1.3)" fill="none" stroke-linecap="square">
    <path d="M8.292,4.781V0H.888A.865.865,0,0,0,0,.844V17.156A.865.865,0,0,0,.888,18H13.326a.865.865,0,0,0,.888-.844V5.625H9.18A.869.869,0,0,1,8.292,4.781Zm2.369,8.3a.435.435,0,0,1-.444.422H4a.435.435,0,0,1-.444-.422V12.8A.435.435,0,0,1,4,12.375h6.219a.435.435,0,0,1,.444.422Zm0-2.25a.435.435,0,0,1-.444.422H4c-.244,0-.444-.19-.444-.7A.435.435,0,0,1,4,10.125h6.219C10.461,10.125,10.661,10.315,10.661,10.828Zm0-2.531v.281A.435.435,0,0,1,10.217,9H4a.435.435,0,0,1-.444-.422V8.3A.435.435,0,0,1,4,7.875h6.219A.435.435,0,0,1,10.661,8.3Zm3.554-4.011V4.5H9.476V0H9.7a.912.912,0,0,1,.629.246l3.624,3.445A.82.82,0,0,1,14.215,4.286Z" stroke="none"/>
    <path d="M 0.8884124755859375 0 C 0.396082878112793 0 2.86102294921875e-06 0.3761692047119141 2.86102294921875e-06 0.84375 L 2.86102294921875e-06 17.15625953674316 C 2.86102294921875e-06 17.62384033203125 0.396082878112793 18 0.8884124755859375 18 L 13.32623291015625 18 C 13.81856250762939 18 14.21464252471924 17.62384033203125 14.21464252471924 17.15625953674316 L 14.21464252471924 5.625 L 9.180292129516602 5.625 C 8.691662788391113 5.625 8.291882514953613 5.245309829711914 8.291882514953613 4.78125 L 8.291882514953613 0 L 0.8884124755859375 0 M 10.21677303314209 9 L 3.997872352600098 9 C 3.753552436828613 9 3.553662300109863 8.810159683227539 3.553662300109863 8.578129768371582 L 3.553662300109863 8.296870231628418 C 3.553662300109863 8.064849853515625 3.753552436828613 7.875 3.997872352600098 7.875 L 10.21677303314209 7.875 C 10.46109294891357 7.875 10.66098213195801 8.064849853515625 10.66098213195801 8.296870231628418 L 10.66098213195801 8.578129768371582 C 10.66098213195801 8.810159683227539 10.46109294891357 9 10.21677303314209 9 M 10.21677303314209 11.25 L 3.997872352600098 11.25 C 3.753552436828613 11.25 3.553662300109863 11.06015968322754 3.553662300109863 10.54687023162842 C 3.553662300109863 10.31484985351563 3.753552436828613 10.125 3.997872352600098 10.125 L 10.21677303314209 10.125 C 10.46109294891357 10.125 10.66098213195801 10.31484985351563 10.66098213195801 10.82812976837158 C 10.66098213195801 11.06015968322754 10.46109294891357 11.25 10.21677303314209 11.25 M 10.21677303314209 13.5 L 3.997872352600098 13.5 C 3.753552436828613 13.5 3.553662300109863 13.31015968322754 3.553662300109863 13.07812976837158 L 3.553662300109863 12.79687976837158 C 3.553662300109863 12.56484985351563 3.753552436828613 12.375 3.997872352600098 12.375 L 10.21677303314209 12.375 C 10.46109294891357 12.375 10.66098213195801 12.56484985351563 10.66098213195801 12.79687976837158 L 10.66098213195801 13.07812976837158 C 10.66098213195801 13.31015968322754 10.46109294891357 13.5 10.21677303314209 13.5 M 9.476432800292969 0 L 9.476432800292969 4.5 L 14.21464252471924 4.5 L 14.21464252471924 4.285550117492676 C 14.21464252471924 4.064060211181641 14.12210273742676 3.849610328674316 13.95552253723145 3.691410064697266 L 10.33153247833252 0.2460899353027344 C 10.16495323181152 0.087890625 9.939142227172852 0 9.702232360839844 0 L 9.476432800292969 0 M 0.8884124755859375 -1.299999237060547 L 8.176432609558105 -1.299999237060547 L 9.476432800292969 -1.299999237060547 L 9.702232360839844 -1.299999237060547 C 10.27558326721191 -1.299999237060547 10.81700325012207 -1.085689544677734 11.22675323486328 -0.6965503692626953 L 14.851243019104 2.749239921569824 C 15.27266311645508 3.149459838867188 15.5146427154541 3.709589958190918 15.5146427154541 4.285550117492676 L 15.5146427154541 4.324999809265137 L 15.5146427154541 5.625 L 15.5146427154541 17.15625953674316 C 15.5146427154541 18.33831977844238 14.53292274475098 19.29999923706055 13.32623291015625 19.29999923706055 L 0.8884124755859375 19.29999923706055 C -0.3182773590087891 19.29999923706055 -1.299997329711914 18.33831977844238 -1.299997329711914 17.15625953674316 L -1.299997329711914 0.84375 C -1.299997329711914 -0.3383197784423828 -0.3182773590087891 -1.299999237060547 0.8884124755859375 -1.299999237060547 Z" stroke="none" fill="#5a5a5a"/>
  </g>
</svg>
