<svg xmlns="http://www.w3.org/2000/svg" width="19.273" height="19.273" viewBox="0 0 19.273 19.273">
  <g id="Group_9472" data-name="Group 9472" transform="translate(-839.727 -318.237)">
    <path id="Path_43" data-name="Path 43" d="M16.552,11.631a.955.955,0,1,1,.95.927A.928.928,0,0,1,16.552,11.631Zm.065,1.654h1.77v6.676h-1.77Z" transform="translate(831.857 312.361)" fill="#3d4d77"/>
    <path id="Path_44" data-name="Path 44" d="M13.012,4.672a8.336,8.336,0,1,1-5.9,2.442,8.284,8.284,0,0,1,5.9-2.442m0-1.3a9.637,9.637,0,1,0,9.637,9.637,9.635,9.635,0,0,0-9.637-9.637Z" transform="translate(836.352 314.862)" fill="#232750" opacity="0.75"/>
  </g>
</svg>
