<svg xmlns="http://www.w3.org/2000/svg" width="58" height="58" viewBox="0 0 58 58">
  <g id="Group_9518" data-name="Group 9518" transform="translate(-1164 -790)">
    <g id="Rectangle_2597" data-name="Rectangle 2597" transform="translate(1164 790)" fill="none" stroke="#dee9f8" stroke-width="1.5">
      <rect width="58" height="58" rx="10" stroke="none"/>
      <rect x="0.75" y="0.75" width="56.5" height="56.5" rx="9.25" fill="none"/>
    </g>
    <g id="Icon_feather-trash-2" data-name="Icon feather-trash-2" transform="translate(1182 807.394)">
      <path id="Path_49941" data-name="Path 49941" d="M4.5,9H25.7" transform="translate(-4.5 -4.288)" fill="none" stroke="#dee9f8" stroke-linecap="round" stroke-linejoin="round" stroke-width="2"/>
      <path id="Path_49942" data-name="Path 49942" d="M23.991,7.712V24.2a2.356,2.356,0,0,1-2.356,2.356H9.856A2.356,2.356,0,0,1,7.5,24.2V7.712m3.534,0V5.356A2.356,2.356,0,0,1,13.39,3H18.1a2.356,2.356,0,0,1,2.356,2.356V7.712" transform="translate(-5.144 -3)" fill="none" stroke="#dee9f8" stroke-linecap="round" stroke-linejoin="round" stroke-width="2"/>
      <path id="Path_49943" data-name="Path 49943" d="M15,16.5v7.068" transform="translate(-6.754 -5.898)" fill="none" stroke="#dee9f8" stroke-linecap="round" stroke-linejoin="round" stroke-width="2"/>
      <path id="Path_49944" data-name="Path 49944" d="M21,16.5v7.068" transform="translate(-8.043 -5.898)" fill="none" stroke="#dee9f8" stroke-linecap="round" stroke-linejoin="round" stroke-width="2"/>
    </g>
  </g>
</svg>
