<svg xmlns="http://www.w3.org/2000/svg" width="23.841" height="23.849" viewBox="0 0 23.841 23.849">
  <g id="hand_1_" data-name="hand (1)" transform="translate(-0.501)">
    <path id="Path_50257" data-name="Path 50257" d="M219.52,330.989a.466.466,0,1,0-.659,0A.466.466,0,0,0,219.52,330.989Zm0,0" transform="translate(-208.059 -314.814)" fill="#5a5a5a"/>
    <path id="Path_50258" data-name="Path 50258" d="M188.449,5.122A5.122,5.122,0,1,0,193.571,0,5.128,5.128,0,0,0,188.449,5.122Zm9.313,0A4.191,4.191,0,1,1,193.571.931,4.2,4.2,0,0,1,197.762,5.122Zm0,0" transform="translate(-179.193)" fill="#5a5a5a"/>
    <path id="Path_50259" data-name="Path 50259" d="M5.865,226.14a.466.466,0,0,0,.657,0L8.78,223.92a1.407,1.407,0,0,0,.332-1.445l.486-.468a1.389,1.389,0,0,1,.97-.392h6.19a4.169,4.169,0,0,0,2.923-1.188c.032-.031-.246.3,4.223-5.045a1.863,1.863,0,0,0-2.834-2.418l-2.748,2.824a1.871,1.871,0,0,0-1.448-.693H11.681a6.008,6.008,0,0,0-2.332-.466A5.761,5.761,0,0,0,4.1,217.607a1.391,1.391,0,0,0-1.245.386L.637,220.215a.466.466,0,0,0,0,.657Zm3.484-10.579a5.083,5.083,0,0,1,2.05.427.465.465,0,0,0,.187.039h5.288a.931.931,0,1,1,0,1.863h-3.8a.466.466,0,1,0,0,.931h3.8a1.86,1.86,0,0,0,1.846-2.106c2.658-2.732,3.033-3.116,3.049-3.135a.931.931,0,1,1,1.422,1.2l-4.177,4.993a3.243,3.243,0,0,1-2.257.908h-6.19a2.315,2.315,0,0,0-1.616.653l-.4.382L4.906,218.07a4.808,4.808,0,0,1,4.442-2.509Zm-5.837,3.09a.465.465,0,0,1,.577-.066c.081.049-.151-.162,4.033,4.017a.467.467,0,0,1,0,.656l-1.925,1.9-4.576-4.61Zm0,0" transform="translate(0 -202.429)" fill="#5a5a5a"/>
    <path id="Path_50260" data-name="Path 50260" d="M266.748,40.454V41a1.4,1.4,0,0,0,.466,2.714.466.466,0,1,1,0,.931.842.842,0,0,1-.6-.352.466.466,0,1,0-.713.6,1.931,1.931,0,0,0,.852.606v.543a.466.466,0,1,0,.931,0V45.5a1.4,1.4,0,0,0-.466-2.714.466.466,0,0,1,0-.931.748.748,0,0,1,.5.243.466.466,0,1,0,.648-.669,1.8,1.8,0,0,0-.686-.429v-.542a.466.466,0,1,0-.931,0Zm0,0" transform="translate(-252.929 -38.126)" fill="#5a5a5a"/>
  </g>
</svg>
