<svg xmlns="http://www.w3.org/2000/svg" width="22.464" height="22.393" viewBox="0 0 22.464 22.393">
  <path id="Icon_ionic-md-settings" data-name="Icon ionic-md-settings" d="M21.932,14.977a6.6,6.6,0,0,0,.054-1.055c0-.369-.054-.685-.054-1.055l2.265-1.74a.484.484,0,0,0,.108-.685L22.147,6.8a.525.525,0,0,0-.647-.211L18.8,7.646a7.85,7.85,0,0,0-1.834-1.055L16.592,3.8a.578.578,0,0,0-.539-.422H11.737A.578.578,0,0,0,11.2,3.8l-.431,2.795A9.134,9.134,0,0,0,8.932,7.646l-2.7-1.055a.505.505,0,0,0-.647.211L3.431,10.442a.637.637,0,0,0,.108.685l2.319,1.74c0,.369-.054.685-.054,1.055s.054.685.054,1.055l-2.265,1.74a.484.484,0,0,0-.108.685l2.157,3.639a.525.525,0,0,0,.647.211l2.7-1.055a7.849,7.849,0,0,0,1.834,1.055l.431,2.795a.523.523,0,0,0,.539.422h4.315a.578.578,0,0,0,.539-.422l.432-2.795A9.128,9.128,0,0,0,18.911,20.2l2.7,1.055a.505.505,0,0,0,.647-.211L24.413,17.4a.636.636,0,0,0-.108-.685Zm-8.037,2.637a3.692,3.692,0,1,1,3.776-3.691A3.711,3.711,0,0,1,13.895,17.613Z" transform="translate(-2.69 -2.725)" fill="none" stroke="#565656" stroke-width="1.3"/>
</svg>
