<svg xmlns="http://www.w3.org/2000/svg" width="106" height="85" viewBox="0 0 106 85">
  <text id="Simple_and_quick_registration" data-name="Simple and quick 
registration" transform="translate(53 62)" fill="#232750" font-size="12" font-family="Montserrat-Regular, Montserrat" letter-spacing="-0.011em" opacity="0.75"><tspan x="-52.974" y="0">Simple and quick </tspan><tspan x="-34.092" y="20">registration</tspan></text>
  <g id="Website" transform="translate(34.999)" opacity="0.8">
    <g id="VertoFX---V4-Login" transform="translate(0.001)">
      <g id="portfolio" transform="translate(0)">
        <path id="Path" d="M32.345,11.621a.781.781,0,0,0,.781-.781v-8.5A2.346,2.346,0,0,0,30.782,0H2.345A2.346,2.346,0,0,0,0,2.344V37.656A2.346,2.346,0,0,0,2.345,40H30.782a2.346,2.346,0,0,0,2.344-2.344V31.9a.781.781,0,1,0-1.562,0v5.756a.782.782,0,0,1-.781.781H2.345a.782.782,0,0,1-.781-.781V2.344a.782.782,0,0,1,.781-.781H30.782a.782.782,0,0,1,.781.781v8.5A.781.781,0,0,0,32.345,11.621Z" transform="translate(-0.001)" fill="#8b8888"/>
        <path id="Shape" d="M25.939,8.438a7.184,7.184,0,0,0-4.931,12.412.772.772,0,0,0,.084.078,7.174,7.174,0,0,0,9.694,0,.787.787,0,0,0,.084-.078A7.184,7.184,0,0,0,25.939,8.438Zm0,12.813a5.6,5.6,0,0,1-3.4-1.146,3.906,3.906,0,0,1,6.8,0A5.6,5.6,0,0,1,25.939,21.25Zm-1.25-5.937V14.8a1.25,1.25,0,1,1,2.5,0v.508a1.25,1.25,0,1,1-2.5,0Zm5.777,3.647a5.42,5.42,0,0,0-2.3-1.929,2.8,2.8,0,0,0,.588-1.718V14.8a2.812,2.812,0,1,0-5.625,0v.508a2.8,2.8,0,0,0,.588,1.718,5.42,5.42,0,0,0-2.3,1.929,5.625,5.625,0,1,1,9.053,0Z" transform="translate(-9.376 -4.219)" fill="#8b8888"/>
        <path id="Path-2" data-name="Path" d="M36.564,68.438H32.345a.781.781,0,0,0,0,1.563h4.219a.781.781,0,0,0,0-1.562Z" transform="translate(-15.782 -34.219)" fill="#8b8888"/>
        <path id="Path-3" data-name="Path" d="M29.689,59.688H18.595a.781.781,0,0,0,0,1.563H29.689a.781.781,0,0,0,0-1.562Z" transform="translate(-8.907 -29.844)" fill="#8b8888"/>
        <path id="Path-4" data-name="Path" d="M29.689,50.938H18.595a.781.781,0,0,0,0,1.563H29.689a.781.781,0,0,0,0-1.562Z" transform="translate(-8.907 -25.469)" fill="#8b8888"/>
        <path id="Path-5" data-name="Path" d="M12.473,42.416a.781.781,0,1,0,.229.552A.787.787,0,0,0,12.473,42.416Z" transform="translate(-5.57 -21.094)" fill="#8b8888"/>
        <path id="Path-6" data-name="Path" d="M12.473,51.166a.781.781,0,1,0,.229.552A.789.789,0,0,0,12.473,51.166Z" transform="translate(-5.57 -25.469)" fill="#8b8888"/>
        <path id="Path-7" data-name="Path" d="M12.473,59.916a.781.781,0,1,0,.229.552A.789.789,0,0,0,12.473,59.916Z" transform="translate(-5.57 -29.844)" fill="#8b8888"/>
        <path id="Path-8" data-name="Path" d="M29.689,42.188H18.595a.781.781,0,0,0,0,1.563H29.689a.781.781,0,0,0,0-1.562Z" transform="translate(-8.907 -21.094)" fill="#8b8888"/>
        <path id="Shape-2" data-name="Shape" d="M61.609,19.922a3.281,3.281,0,0,0-4.482,1.2L47.3,38.151a.783.783,0,0,0-.1.3l-.692,6.2a.781.781,0,0,0,1.24.716l5.022-3.7a.78.78,0,0,0,.213-.238L62.81,24.4A3.285,3.285,0,0,0,61.609,19.922ZM48.254,43.052l.361-3.237,2.261,1.305Zm3.762-3.078-2.977-1.719,7.889-13.665,2.977,1.719Zm9.441-16.352-.77,1.334-2.977-1.719.77-1.334a1.719,1.719,0,0,1,2.977,1.719Z" transform="translate(-23.25 -9.74)" fill="#8b8888"/>
      </g>
    </g>
  </g>
</svg>
