<svg xmlns="http://www.w3.org/2000/svg" width="17.661" height="30.135" viewBox="0 0 17.661 30.135">
  <path id="Path_50261" data-name="Path 50261" d="M-.5,736.015v-3.648H-12.143v21.6H-.824v-5.5" transform="translate(12.793 -724.479)" fill="none" stroke="#5a5a5a" stroke-linecap="round" stroke-linejoin="round" stroke-width="1.3"/>
  <g id="Path_50264" data-name="Path 50264" transform="translate(8.661 12.985)" fill="none">
    <path d="M4.5,0A4.5,4.5,0,1,1,0,4.5,4.5,4.5,0,0,1,4.5,0Z" stroke="none"/>
    <path d="M 4.5 1.199999809265137 C 2.680369853973389 1.199999809265137 1.199999809265137 2.680369853973389 1.199999809265137 4.5 C 1.199999809265137 6.319629669189453 2.680369853973389 7.800000190734863 4.5 7.800000190734863 C 6.319629669189453 7.800000190734863 7.800000190734863 6.319629669189453 7.800000190734863 4.5 C 7.800000190734863 2.680369853973389 6.319629669189453 1.199999809265137 4.5 1.199999809265137 M 4.5 0 C 6.98528003692627 0 9 2.01471996307373 9 4.5 C 9 6.98528003692627 6.98528003692627 9 4.5 9 C 2.01471996307373 9 0 6.98528003692627 0 4.5 C 0 2.01471996307373 2.01471996307373 0 4.5 0 Z" stroke="none" fill="#5a5a5a"/>
  </g>
  <path id="Icon_open-british-pound" data-name="Icon open-british-pound" d="M1.24,0A.782.782,0,0,0,.62.282,1.018,1.018,0,0,0,.413.92a3.623,3.623,0,0,0,.1.715H0v.409H.5a1.46,1.46,0,0,1-.438.679L0,2.776v.5H2.48V2.866H.451a1.979,1.979,0,0,0,.467-.818h.736V1.639H.943C.91,1.361.827,1.132.827.924A.618.618,0,0,1,.943.54a.341.341,0,0,1,.3-.127.413.413,0,0,1,.31.1.4.4,0,0,1,.1.307h.413a.837.837,0,0,0-.219-.6A.84.84,0,0,0,1.24,0Z" transform="translate(12.03 15.749)" fill="#5a5a5a"/>
  <circle id="Ellipse_587" data-name="Ellipse 587" cx="1" cy="1" r="1" transform="translate(6.219 23.985)" fill="#5a5a5a"/>
  <path id="Path_50262" data-name="Path 50262" d="M-6.8,723.3s2.835-3.965,5.993,0" transform="translate(10.52 -718.123)" fill="none" stroke="#5a5a5a" stroke-linecap="round" stroke-width="1"/>
  <path id="Path_50263" data-name="Path 50263" d="M-6.8,724.428s4.653-6.506,9.835,0" transform="translate(8.455 -721.015)" fill="none" stroke="#5a5a5a" stroke-linecap="round" stroke-width="1"/>
</svg>
