<svg id="virtual_card" data-name="virtual card" xmlns="http://www.w3.org/2000/svg" width="28" height="28" viewBox="0 0 28 28">
  <path id="Path_50147" data-name="Path 50147" d="M14,27.222A13.222,13.222,0,1,0,.778,14,13.222,13.222,0,0,0,14,27.222ZM14,28A14,14,0,1,0,0,14,14,14,0,0,0,14,28Z" fill="#232750" fill-rule="evenodd"/>
  <path id="Path_50148" data-name="Path 50148" d="M20.2,15.827H7.636v-1H20.2c.195,0,.353.224.353.5S20.4,15.827,20.2,15.827ZM9.079,18.51c0-.276.158-.5.353-.5H22v1H9.432C9.237,19.01,9.079,18.786,9.079,18.51Z" transform="translate(-0.977 -3.728)" fill="#232750" fill-rule="evenodd"/>
  <path id="Path_50149" data-name="Path 50149" d="M19.376,12H8.26c-.348,0-.63.448-.63,1V23c0,.552.282,1,.63,1H19.376c.348,0,.63-.448.63-1V13C20.006,12.448,19.724,12,19.376,12ZM8.26,11c-.7,0-1.26.9-1.26,2V23c0,1.1.564,2,1.26,2H19.376c.7,0,1.26-.9,1.26-2V13c0-1.1-.564-2-1.26-2Z" transform="translate(0 -4)" fill="#232750" fill-rule="evenodd"/>
</svg>
